***********************************************************************************
               Thor (2011) BDRip SBS 1080p Tele-3D Vision BY-GPSOFT
***********************************************************************************
General
-------
Complete name                    : Thor (2011) BDRip SBS 1080p Tele-3D Vision BY-GPSOFT.mkv
Format                           : Matroska
File size                        : 4.68 GiB
Duration                         : 1h 54mn
Overall bit rate                 : 5 835 Kbps
Movie name                       : Thor (2011) BDRip SBS 1080p Tele-3D HINDI-ENG BY-GPSOFT
Encoded date                     : UTC 2011-11-16 03:05:52
Writing application              : mkvmerge v5.0.0 ('Die Wahre Liebe') built on Sep 25 2011 20:33:49
Writing library                  : libebml v1.2.2 + libmatroska v1.3.0

Video
-------
ID                               : 1
Format                           : AVC
Format/Info                      : Advanced Video Codec
Format profile                   : High@L4.1
Format settings, CABAC           : Yes
Format settings, ReFrames        : 4 frames
Muxing mode                      : Header stripping
Codec ID                         : V_MPEG4/ISO/AVC
Duration                         : 1h 54mn
Bit rate                         : 5 005 Kbps
Width                            : 1 920 pixels
Height                           : 1 080 pixels
Display aspect ratio             : 16:9
Frame rate                       : 23.976 fps
Color space                      : YUV
Chroma subsampling               : 4:2:0
Bit depth                        : 8 bits
Scan type                        : Progressive
Bits/(Pixel*Frame)               : 0.101
Stream size                      : 3.92 GiB (84%)
Title                            : Thor (2011) BDRip SBS 1080p Tele-3D HINDI-ENG BY-GPSOFT
Writing library                  : x264 core 116 r2074 2641b9e
Encoding settings                : cabac=1 / ref=4 / deblock=1:0:0 / analyse=0x3:0x113 / me=umh / subme=11 / psy=1 / psy_rd=1.00:0.00 / mixed_ref=1 / me_range=32 / chroma_me=1 / trellis=2 / 8x8dct=1 / cqm=0 / deadzone=21,11 / fast_pskip=1 / chroma_qp_offset=-2 / threads=6 / sliced_threads=0 / nr=0 / decimate=1 / interlaced=0 / bluray_compat=0 / constrained_intra=0 / bframes=3 / b_pyramid=2 / b_adapt=2 / b_bias=0 / direct=3 / weightb=1 / open_gop=0 / weightp=2 / keyint=250 / keyint_min=23 / scenecut=40 / intra_refresh=0 / rc_lookahead=50 / rc=2pass / mbtree=1 / bitrate=5005 / ratetol=1.0 / qcomp=0.60 / qpmin=0 / qpmax=69 / qpstep=4 / cplxblur=20.0 / qblur=0.5 / ip_ratio=1.40 / aq=1:1.00
Language                         : English

Audio #1
--------
ID                               : 2
Format                           : AC-3
Format/Info                      : Audio Coding 3
Mode extension                   : CM (complete main)
Muxing mode                      : Header stripping
Codec ID                         : A_AC3
Duration                         : 1h 54mn
Bit rate mode                    : Constant
Bit rate                         : 448 Kbps
Channel(s)                       : 6 channels
Channel positions                : Front: L C R, Side: L R, LFE
Sampling rate                    : 48.0 KHz
Bit depth                        : 16 bits
Compression mode                 : Lossy
Stream size                      : 368 MiB (8%)
Title                            : HINDI-AC3 DD-5.1 BY-GPSOFT
Language                         : Hindi

Audio #2
--------
ID                               : 3
Format                           : AC-3
Format/Info                      : Audio Coding 3
Mode extension                   : CM (complete main)
Muxing mode                      : Header stripping
Codec ID                         : A_AC3
Duration                         : 1h 54mn
Bit rate mode                    : Constant
Bit rate                         : 384 Kbps
Channel(s)                       : 6 channels
Channel positions                : Front: L C R, Side: L R, LFE
Sampling rate                    : 48.0 KHz
Bit depth                        : 16 bits
Compression mode                 : Lossy
Stream size                      : 315 MiB (7%)
Title                            : ENG-AC3 DD-5.1 BY-GPSOFT
Language                         : English

Text #1
-------
ID                               : 4
Format                           : UTF-8
Codec ID                         : S_TEXT/UTF8
Codec ID/Info                    : UTF-8 Plain Text
Title                            : HINDI
Language                         : Hindi

Text #2
-------
ID                               : 5
Format                           : UTF-8
Codec ID                         : S_TEXT/UTF8
Codec ID/Info                    : UTF-8 Plain Text
Title                            : ENG
Language                         : English

***********************************************************************************
                                 CLICK FOR SAMPLE IMAGE

       http://img593.imageshack.us/img593/8938/thor2011bdripsbs1080pte.jpg

***********************************************************************************

                        SAY THANKS IF U LIKE THIS "GPSOFT" POST
